<svg version="1.1" id="Layer_1" xmlns="http://www.w3.org/2000/svg" xmlns:xlink="http://www.w3.org/1999/xlink" x="0px" y="0px"
	 width="100%" viewBox="0 0 1024 1024" enable-background="new 0 0 1024 1024" xml:space="preserve">
<path fill="#000000" opacity="1.000000" stroke="none" 
	d="
M555.294006,822.330444 
	C544.677856,824.078735 535.054810,821.439270 525.304138,819.050964 
	C513.006775,816.038635 502.588623,808.852112 490.952362,804.385193 
	C480.493561,800.370178 469.841675,798.182556 458.702332,799.136230 
	C442.698456,800.506287 430.950439,812.896790 429.936829,829.070984 
	C429.250153,840.028259 424.746490,843.318359 414.163727,840.197998 
	C387.587219,832.361694 360.501709,827.115417 333.144257,822.788635 
	C317.911621,820.379517 302.598846,817.394714 288.009399,812.109924 
	C279.732849,809.111816 273.067383,802.838257 264.908386,799.315735 
	C257.473236,796.105713 250.151291,792.775085 245.350174,785.390808 
	C243.054352,781.859680 238.164261,781.332214 233.967972,781.162903 
	C227.982864,780.921387 221.982178,781.425354 216.003189,781.519592 
	C201.409454,781.749573 186.856476,780.894775 175.323090,770.137512 
	C170.426849,765.570740 166.343277,760.195007 164.936523,753.476196 
	C163.575287,746.974609 162.085007,740.486267 161.764877,733.773682 
	C161.303970,724.109009 158.001297,714.585876 153.185364,706.946899 
	C148.372040,699.312012 142.205841,692.056641 136.454361,684.780457 
	C130.271576,676.958618 124.388695,668.833496 119.111908,660.380615 
	C114.019859,652.223694 113.789207,642.571167 113.188850,633.294128 
	C112.447227,621.834351 112.559929,610.322144 112.015610,598.846191 
	C110.901375,575.354187 114.326126,552.433777 118.976364,529.455261 
	C123.883598,505.206818 133.307770,482.698090 142.643082,460.075073 
	C143.767120,457.351044 145.678223,454.914429 147.429779,452.493042 
	C156.039001,440.591492 166.263016,430.265778 177.108322,420.334930 
	C187.621384,410.708252 198.786835,401.781464 205.062912,387.820923 
	C210.209061,376.373840 214.137283,364.631897 218.164749,352.876923 
	C221.073715,344.386536 226.902176,337.667267 230.897690,329.856384 
	C232.131943,327.443512 234.013657,325.242798 235.260208,322.688263 
	C236.854584,319.420868 236.887024,315.082306 241.481461,313.693298 
	C242.266571,313.455933 242.541000,311.396790 242.973633,310.152222 
	C244.052429,307.048950 245.849487,305.154083 248.707993,302.943542 
	C256.128387,297.205200 264.160583,291.534088 268.162628,282.393707 
	C269.571686,279.175537 269.184204,275.847473 268.014587,272.630341 
	C267.083954,270.070587 267.211823,267.755157 269.030670,265.615967 
	C270.415100,263.987701 271.593903,263.275177 273.477478,265.260834 
	C276.541595,268.491028 283.844330,268.580444 287.408936,266.120483 
	C300.422577,257.139618 313.496582,248.283783 329.282745,244.606567 
	C334.727631,243.338257 339.363373,240.283432 343.256104,236.246857 
	C346.772095,232.600937 350.816895,229.740402 355.386169,227.588455 
	C366.214935,222.488602 375.688507,215.519577 383.802124,206.737900 
	C391.665314,198.227188 401.596252,192.890945 411.910217,188.102692 
	C415.903259,186.248932 419.746918,187.076996 423.482391,188.809799 
	C430.749939,192.181061 438.108734,195.079391 446.104370,196.472351 
	C452.460602,197.579697 457.250488,202.245102 461.111237,206.802856 
	C477.423096,226.059692 499.363831,226.174759 521.591553,225.486053 
	C529.765808,225.232788 536.671509,221.971588 543.409973,216.872147 
	C549.464172,212.290558 556.435425,208.262451 564.322144,206.724182 
	C567.472656,206.109680 569.421997,203.135849 572.530457,202.125305 
	C575.496460,201.161102 578.348389,200.551697 581.298828,201.669479 
	C592.872375,206.054214 604.962646,206.945114 617.159180,206.918213 
	C624.289490,206.902496 630.774475,208.613220 637.370605,211.490128 
	C650.734192,217.318649 665.172119,219.607193 679.474731,221.834167 
	C695.748413,224.368042 712.048279,227.002045 728.589844,227.259766 
	C740.892273,227.451447 750.089844,234.478928 759.406921,241.253677 
	C772.215820,250.567551 785.534424,259.110962 799.458496,266.633789 
	C811.484070,273.130890 820.829407,282.531067 828.953003,293.164337 
	C836.119324,302.544586 842.816650,312.308685 849.284912,322.188873 
	C854.694458,330.451935 858.118469,339.772675 861.145142,349.104248 
	C865.058533,361.169769 869.792419,372.646851 876.035278,383.838623 
	C886.213562,402.085449 891.939819,421.997223 894.146729,443.047089 
	C896.249817,463.107056 897.471436,483.138855 898.261353,503.287262 
	C898.974915,521.488159 898.592163,539.524902 897.215759,557.638306 
	C896.190735,571.127747 898.002991,584.574829 898.904968,598.028931 
	C900.836121,626.835266 893.660400,654.198730 885.721619,681.477356 
	C882.358398,693.033875 876.958252,703.246155 869.412231,712.638550 
	C861.207458,722.851013 855.379456,734.866150 846.337158,744.474487 
	C837.026062,754.368469 826.671753,762.932434 813.510254,767.353149 
	C804.525574,770.370972 795.575989,773.392944 786.357117,775.798828 
	C777.962158,777.989746 770.327515,782.568054 764.387634,789.692261 
	C758.614624,796.616333 750.239380,800.210266 742.026917,803.290283 
	C728.155457,808.492676 714.237122,813.410828 701.005920,820.252258 
	C691.434265,825.201233 680.556519,824.761169 670.114685,824.535095 
	C657.144958,824.254272 644.201355,822.889465 631.237549,822.149902 
	C625.864258,821.843445 620.717468,820.572937 615.528259,819.340942 
	C598.073242,815.196472 580.684570,813.455139 563.614014,821.104614 
	C561.122925,822.220947 558.376099,821.946655 555.294006,822.330444 
M317.766174,553.149170 
	C304.441711,589.225525 291.110443,625.299377 277.799500,661.380676 
	C275.562744,667.443726 275.774384,667.740662 282.394043,667.762329 
	C292.393799,667.795105 302.415619,667.358765 312.385406,667.903076 
	C318.342407,668.228394 320.833771,666.008301 322.710785,660.578064 
	C331.303711,635.718567 340.551971,611.084290 349.018188,586.183228 
	C351.030396,580.264954 353.983856,578.784851 359.799591,578.826050 
	C393.130829,579.062683 426.464722,578.948059 459.797638,578.913147 
	C466.377960,578.906250 466.800354,578.168152 464.362274,571.937317 
	C461.267395,564.027832 457.960022,556.190735 455.195557,548.166931 
	C453.619781,543.593445 450.997986,542.182617 446.289093,542.219788 
	C421.624237,542.414978 396.956970,542.323547 372.290649,542.273254 
	C370.222748,542.269043 367.960785,542.890320 365.516632,540.708374 
	C382.343994,493.739868 399.245789,446.563660 416.225098,399.171051 
	C418.935516,400.589355 419.070160,402.773315 419.744293,404.519043 
	C433.000061,438.843964 446.051849,473.248291 459.447601,507.518250 
	C470.417633,535.582642 479.588623,564.371521 492.343170,591.710571 
	C506.004242,620.992798 526.582214,644.072388 556.017883,658.306519 
	C586.150330,672.877502 617.832886,675.578857 650.528809,669.671082 
	C699.764526,660.774780 737.534180,622.156677 745.884949,572.824524 
	C749.363708,552.273926 748.303650,531.663391 748.768311,511.047943 
	C748.876221,506.260010 746.976013,505.003510 742.620178,505.082001 
	C732.623657,505.262115 722.621521,505.135101 712.621704,505.134521 
	C686.622009,505.133087 660.621948,505.204529 634.622986,505.064667 
	C629.997009,505.039795 627.972839,506.375336 628.236633,511.337280 
	C628.598816,518.151245 628.317993,524.998962 628.325378,531.832214 
	C628.334839,540.584412 628.562988,540.845093 637.273071,540.849670 
	C658.772827,540.860962 680.273315,540.930664 701.771545,540.744019 
	C705.972717,540.707520 707.738525,541.600525 707.496643,546.248413 
	C707.245300,551.076416 706.864563,555.878662 706.268616,560.659302 
	C703.491272,582.939941 694.291199,602.036072 676.241943,615.709412 
	C649.328186,636.098145 618.978088,637.964172 587.865601,628.473633 
	C560.594238,620.154724 542.187134,600.864197 530.664490,575.323425 
	C514.362427,539.188721 500.879578,501.874756 485.789307,465.227051 
	C471.078918,429.501953 456.716095,393.633057 442.361267,357.763031 
	C440.498230,353.107666 437.985657,351.034698 432.742584,351.208771 
	C421.421875,351.584625 410.074677,351.522369 398.749481,351.220215 
	C394.345520,351.102722 392.304535,352.631317 390.785919,356.735962 
	C366.639221,422.001862 342.339600,487.211151 317.766174,553.149170 
M701.330139,443.302704 
	C701.981812,448.434021 704.900574,449.986420 709.957520,449.785126 
	C719.274597,449.414307 728.616821,449.691925 737.948608,449.672150 
	C744.806946,449.657623 745.969971,448.310852 744.365295,441.637085 
	C736.377014,408.415070 718.252747,382.479156 688.498901,365.259430 
	C659.195374,348.300293 627.498962,343.717865 594.454407,349.313995 
	C546.234009,357.480164 513.177856,385.227936 493.456024,429.539673 
	C492.505981,431.674255 492.489532,433.571808 493.383179,435.740997 
	C500.803040,453.752686 508.126556,471.804108 515.531250,489.822083 
	C516.128174,491.274689 516.371887,493.169647 518.572083,493.522400 
	C521.034363,492.369965 521.220093,489.922760 521.558044,487.675629 
	C522.348145,482.421936 522.789124,477.109863 523.725403,471.884857 
	C531.962280,425.919556 562.757019,390.866974 608.442627,386.216522 
	C650.008423,381.985443 687.513062,401.713898 701.330139,443.302704 
z"/>
</svg>